<mxfile host="app.diagrams.net" modified="2022-03-03T22:14:05.330Z" agent="5.0 (Windows)" etag="81NdohXrYpRdRgqnU2Po" version="16.6.5" type="github">
  <diagram id="6a731a19-8d31-9384-78a2-239565b7b9f0" name="Page-1">
    <mxGraphModel dx="1384" dy="752" grid="1" gridSize="10" guides="1" tooltips="1" connect="1" arrows="1" fold="1" page="1" pageScale="1" pageWidth="1169" pageHeight="827" background="none" math="0" shadow="0">
      <root>
        <mxCell id="0" />
        <mxCell id="1" parent="0" />
        <mxCell id="1350" value="Evaluation 2" style="ellipse;whiteSpace=wrap;html=1;shadow=0;fontFamily=Helvetica;fontSize=20;fontColor=#FFFFFF;align=center;strokeWidth=3;fillColor=#1699D3;strokeColor=none;" parent="1" vertex="1">
          <mxGeometry x="645" y="231.5" width="120" height="120" as="geometry" />
        </mxCell>
        <mxCell id="1351" value="Evaluation 3" style="ellipse;whiteSpace=wrap;html=1;shadow=0;fontFamily=Helvetica;fontSize=20;fontColor=#FFFFFF;align=center;strokeWidth=3;fillColor=#F08705;strokeColor=none;gradientColor=none;" parent="1" vertex="1">
          <mxGeometry x="1570" y="206.5" width="120" height="120" as="geometry" />
        </mxCell>
        <mxCell id="1352" value="Evaluation 4" style="ellipse;whiteSpace=wrap;html=1;shadow=0;fontFamily=Helvetica;fontSize=20;fontColor=#FFFFFF;align=center;strokeWidth=3;fillColor=#E85642;strokeColor=none;" parent="1" vertex="1">
          <mxGeometry x="1910" y="746.5" width="120" height="120" as="geometry" />
        </mxCell>
        <mxCell id="1357" value="" style="rounded=1;fillColor=#f5af58;strokeColor=none;strokeWidth=3;shadow=0;html=1;fontColor=#FFFFFF;" parent="1" vertex="1">
          <mxGeometry x="1440" y="376.5" width="120" height="40" as="geometry" />
        </mxCell>
        <mxCell id="1358" value="" style="rounded=1;fillColor=#64BBE2;strokeColor=none;strokeWidth=3;shadow=0;html=1;fontColor=#FFFFFF;" parent="1" vertex="1">
          <mxGeometry x="470" y="376.5" width="130" height="40" as="geometry" />
        </mxCell>
        <mxCell id="1359" style="endArrow=none;strokeWidth=6;strokeColor=#1699D3;html=1;" parent="1" source="1515" target="1350" edge="1">
          <mxGeometry relative="1" as="geometry" />
        </mxCell>
        <mxCell id="1360" style="endArrow=none;strokeWidth=6;strokeColor=#f08705;html=1;" parent="1" source="1515" target="1351" edge="1">
          <mxGeometry relative="1" as="geometry" />
        </mxCell>
        <mxCell id="1361" style="endArrow=none;strokeWidth=6;strokeColor=#E85642;html=1;" parent="1" source="1515" target="1352" edge="1">
          <mxGeometry relative="1" as="geometry" />
        </mxCell>
        <mxCell id="1363" style="endArrow=none;strokeWidth=6;strokeColor=#736CA8;html=1;" parent="1" source="1515" target="1516" edge="1">
          <mxGeometry relative="1" as="geometry" />
        </mxCell>
        <mxCell id="1367" value="" style="rounded=1;fillColor=#64BBE2;strokeColor=none;strokeWidth=3;shadow=0;html=1;fontColor=#FFFFFF;" parent="1" vertex="1">
          <mxGeometry x="540" y="426.5" width="130" height="40" as="geometry" />
        </mxCell>
        <mxCell id="1368" value="" style="rounded=1;fillColor=#64BBE2;strokeColor=none;strokeWidth=3;shadow=0;html=1;fontColor=#FFFFFF;" parent="1" vertex="1">
          <mxGeometry x="440" y="306.5" width="130" height="40" as="geometry" />
        </mxCell>
        <mxCell id="1369" value="" style="rounded=1;fillColor=#64BBE2;strokeColor=none;strokeWidth=3;shadow=0;html=1;fontColor=#FFFFFF;" parent="1" vertex="1">
          <mxGeometry x="440" y="231.5" width="130" height="40" as="geometry" />
        </mxCell>
        <mxCell id="1370" value="" style="rounded=1;fillColor=#64BBE2;strokeColor=none;strokeWidth=3;shadow=0;html=1;fontColor=#FFFFFF;" parent="1" vertex="1">
          <mxGeometry x="480" y="166.5" width="130" height="40" as="geometry" />
        </mxCell>
        <mxCell id="1371" value="" style="rounded=1;fillColor=#64BBE2;strokeColor=none;strokeWidth=3;shadow=0;html=1;fontColor=#FFFFFF;" parent="1" vertex="1">
          <mxGeometry x="530" y="106.5" width="130" height="40" as="geometry" />
        </mxCell>
        <mxCell id="1372" value="" style="rounded=1;fillColor=#64BBE2;strokeColor=none;strokeWidth=3;shadow=0;html=1;fontColor=#FFFFFF;" parent="1" vertex="1">
          <mxGeometry x="610" y="46.5" width="130" height="40" as="geometry" />
        </mxCell>
        <mxCell id="1373" value="" style="rounded=1;fillColor=#64BBE2;strokeColor=none;strokeWidth=3;shadow=0;html=1;fontColor=#FFFFFF;" parent="1" vertex="1">
          <mxGeometry x="730" y="106.5" width="130" height="40" as="geometry" />
        </mxCell>
        <mxCell id="1374" value="" style="rounded=1;fillColor=#64BBE2;strokeColor=none;strokeWidth=3;shadow=0;html=1;fontColor=#FFFFFF;" parent="1" vertex="1">
          <mxGeometry x="785" y="166.5" width="130" height="40" as="geometry" />
        </mxCell>
        <mxCell id="1375" value="" style="rounded=1;fillColor=#64BBE2;strokeColor=none;strokeWidth=3;shadow=0;html=1;fontColor=#FFFFFF;" parent="1" vertex="1">
          <mxGeometry x="820" y="226.5" width="130" height="40" as="geometry" />
        </mxCell>
        <mxCell id="1376" value="" style="rounded=1;fillColor=#64BBE2;strokeColor=none;strokeWidth=3;shadow=0;html=1;fontColor=#FFFFFF;" parent="1" vertex="1">
          <mxGeometry x="835" y="306.5" width="130" height="40" as="geometry" />
        </mxCell>
        <mxCell id="1377" value="" style="edgeStyle=none;endArrow=none;strokeWidth=3;strokeColor=#64BBE2;html=1;" parent="1" source="1350" target="1376" edge="1">
          <mxGeometry x="-100" y="16.5" width="100" height="100" as="geometry">
            <mxPoint x="-100" y="116.5" as="sourcePoint" />
            <mxPoint y="16.5" as="targetPoint" />
          </mxGeometry>
        </mxCell>
        <mxCell id="1378" value="" style="edgeStyle=none;endArrow=none;strokeWidth=3;strokeColor=#64BBE2;html=1;" parent="1" source="1350" target="1367" edge="1">
          <mxGeometry x="-100" y="16.5" width="100" height="100" as="geometry">
            <mxPoint x="-100" y="116.5" as="sourcePoint" />
            <mxPoint y="16.5" as="targetPoint" />
          </mxGeometry>
        </mxCell>
        <mxCell id="1379" value="" style="edgeStyle=none;endArrow=none;strokeWidth=3;strokeColor=#64BBE2;html=1;" parent="1" source="1350" target="1358" edge="1">
          <mxGeometry x="-100" y="16.5" width="100" height="100" as="geometry">
            <mxPoint x="-100" y="116.5" as="sourcePoint" />
            <mxPoint y="16.5" as="targetPoint" />
          </mxGeometry>
        </mxCell>
        <mxCell id="1380" value="" style="edgeStyle=none;endArrow=none;strokeWidth=3;strokeColor=#64BBE2;html=1;" parent="1" source="1350" target="1368" edge="1">
          <mxGeometry x="-100" y="16.5" width="100" height="100" as="geometry">
            <mxPoint x="-100" y="116.5" as="sourcePoint" />
            <mxPoint y="16.5" as="targetPoint" />
          </mxGeometry>
        </mxCell>
        <mxCell id="1381" value="" style="edgeStyle=none;endArrow=none;strokeWidth=3;strokeColor=#64BBE2;html=1;" parent="1" source="1350" target="1369" edge="1">
          <mxGeometry x="-100" y="16.5" width="100" height="100" as="geometry">
            <mxPoint x="-100" y="116.5" as="sourcePoint" />
            <mxPoint y="16.5" as="targetPoint" />
          </mxGeometry>
        </mxCell>
        <mxCell id="1382" value="" style="edgeStyle=none;endArrow=none;strokeWidth=3;strokeColor=#64BBE2;html=1;" parent="1" source="1350" target="1370" edge="1">
          <mxGeometry x="-100" y="16.5" width="100" height="100" as="geometry">
            <mxPoint x="-100" y="116.5" as="sourcePoint" />
            <mxPoint y="16.5" as="targetPoint" />
          </mxGeometry>
        </mxCell>
        <mxCell id="1383" value="" style="edgeStyle=none;endArrow=none;strokeWidth=3;strokeColor=#64BBE2;html=1;" parent="1" source="1350" target="1371" edge="1">
          <mxGeometry x="-100" y="16.5" width="100" height="100" as="geometry">
            <mxPoint x="-100" y="116.5" as="sourcePoint" />
            <mxPoint y="16.5" as="targetPoint" />
          </mxGeometry>
        </mxCell>
        <mxCell id="1384" value="" style="edgeStyle=none;endArrow=none;strokeWidth=3;strokeColor=#64BBE2;html=1;" parent="1" source="1350" target="1372" edge="1">
          <mxGeometry x="-100" y="16.5" width="100" height="100" as="geometry">
            <mxPoint x="-100" y="116.5" as="sourcePoint" />
            <mxPoint y="16.5" as="targetPoint" />
          </mxGeometry>
        </mxCell>
        <mxCell id="1385" value="" style="edgeStyle=none;endArrow=none;strokeWidth=3;strokeColor=#64BBE2;html=1;" parent="1" source="1350" target="1373" edge="1">
          <mxGeometry x="-100" y="16.5" width="100" height="100" as="geometry">
            <mxPoint x="-100" y="116.5" as="sourcePoint" />
            <mxPoint y="16.5" as="targetPoint" />
          </mxGeometry>
        </mxCell>
        <mxCell id="1386" value="" style="edgeStyle=none;endArrow=none;strokeWidth=3;strokeColor=#64BBE2;html=1;" parent="1" source="1350" target="1374" edge="1">
          <mxGeometry x="-100" y="16.5" width="100" height="100" as="geometry">
            <mxPoint x="-100" y="116.5" as="sourcePoint" />
            <mxPoint y="16.5" as="targetPoint" />
          </mxGeometry>
        </mxCell>
        <mxCell id="1387" value="" style="edgeStyle=none;endArrow=none;strokeWidth=3;strokeColor=#64BBE2;html=1;" parent="1" source="1350" target="1375" edge="1">
          <mxGeometry x="-100" y="16.5" width="100" height="100" as="geometry">
            <mxPoint x="-100" y="116.5" as="sourcePoint" />
            <mxPoint y="16.5" as="targetPoint" />
          </mxGeometry>
        </mxCell>
        <mxCell id="1388" value="" style="rounded=1;fillColor=#f5af58;strokeColor=none;strokeWidth=3;shadow=0;html=1;fontColor=#FFFFFF;" parent="1" vertex="1">
          <mxGeometry x="1380" y="306.5" width="120" height="40" as="geometry" />
        </mxCell>
        <mxCell id="1389" value="" style="rounded=1;fillColor=#f5af58;strokeColor=none;strokeWidth=3;shadow=0;html=1;fontColor=#FFFFFF;" parent="1" vertex="1">
          <mxGeometry x="1370" y="236.5" width="120" height="40" as="geometry" />
        </mxCell>
        <mxCell id="1390" value="" style="rounded=1;fillColor=#f5af58;strokeColor=none;strokeWidth=3;shadow=0;html=1;fontColor=#FFFFFF;" parent="1" vertex="1">
          <mxGeometry x="1390" y="166.5" width="120" height="40" as="geometry" />
        </mxCell>
        <mxCell id="1391" value="" style="rounded=1;fillColor=#f5af58;strokeColor=none;strokeWidth=3;shadow=0;html=1;fontColor=#FFFFFF;" parent="1" vertex="1">
          <mxGeometry x="1430" y="106.5" width="120" height="40" as="geometry" />
        </mxCell>
        <mxCell id="1392" value="" style="rounded=1;fillColor=#f5af58;strokeColor=none;strokeWidth=3;shadow=0;html=1;fontColor=#FFFFFF;" parent="1" vertex="1">
          <mxGeometry x="1500" y="46.5" width="120" height="40" as="geometry" />
        </mxCell>
        <mxCell id="1393" value="" style="rounded=1;fillColor=#f5af58;strokeColor=none;strokeWidth=3;shadow=0;html=1;fontColor=#FFFFFF;" parent="1" vertex="1">
          <mxGeometry x="1630" y="46.5" width="120" height="40" as="geometry" />
        </mxCell>
        <mxCell id="1394" value="" style="rounded=1;fillColor=#f5af58;strokeColor=none;strokeWidth=3;shadow=0;html=1;fontColor=#FFFFFF;" parent="1" vertex="1">
          <mxGeometry x="1700" y="106.5" width="120" height="40" as="geometry" />
        </mxCell>
        <mxCell id="1395" value="" style="rounded=1;fillColor=#f5af58;strokeColor=none;strokeWidth=3;shadow=0;html=1;fontColor=#FFFFFF;" parent="1" vertex="1">
          <mxGeometry x="1750" y="166.5" width="120" height="40" as="geometry" />
        </mxCell>
        <mxCell id="1396" value="" style="rounded=1;fillColor=#f5af58;strokeColor=none;strokeWidth=3;shadow=0;html=1;fontColor=#FFFFFF;" parent="1" vertex="1">
          <mxGeometry x="1765" y="236.5" width="120" height="40" as="geometry" />
        </mxCell>
        <mxCell id="1397" value="" style="rounded=1;fillColor=#f5af58;strokeColor=none;strokeWidth=3;shadow=0;html=1;fontColor=#FFFFFF;" parent="1" vertex="1">
          <mxGeometry x="1760" y="296.5" width="120" height="40" as="geometry" />
        </mxCell>
        <mxCell id="1398" value="" style="rounded=1;fillColor=#f5af58;strokeColor=none;strokeWidth=3;shadow=0;html=1;fontColor=#FFFFFF;" parent="1" vertex="1">
          <mxGeometry x="1705" y="366.5" width="120" height="40" as="geometry" />
        </mxCell>
        <mxCell id="1399" value="" style="edgeStyle=none;endArrow=none;strokeWidth=3;strokeColor=#F5AF58;html=1;" parent="1" source="1351" target="1357" edge="1">
          <mxGeometry x="470" y="-13.5" width="100" height="100" as="geometry">
            <mxPoint x="470" y="86.5" as="sourcePoint" />
            <mxPoint x="570" y="-13.5" as="targetPoint" />
          </mxGeometry>
        </mxCell>
        <mxCell id="1400" value="" style="edgeStyle=none;endArrow=none;strokeWidth=3;strokeColor=#F5AF58;html=1;" parent="1" source="1351" target="1388" edge="1">
          <mxGeometry x="470" y="-13.5" width="100" height="100" as="geometry">
            <mxPoint x="470" y="86.5" as="sourcePoint" />
            <mxPoint x="570" y="-13.5" as="targetPoint" />
          </mxGeometry>
        </mxCell>
        <mxCell id="1401" value="" style="edgeStyle=none;endArrow=none;strokeWidth=3;strokeColor=#F5AF58;html=1;" parent="1" source="1351" target="1389" edge="1">
          <mxGeometry x="470" y="-13.5" width="100" height="100" as="geometry">
            <mxPoint x="470" y="86.5" as="sourcePoint" />
            <mxPoint x="570" y="-13.5" as="targetPoint" />
          </mxGeometry>
        </mxCell>
        <mxCell id="1402" value="" style="edgeStyle=none;endArrow=none;strokeWidth=3;strokeColor=#F5AF58;html=1;" parent="1" source="1351" target="1390" edge="1">
          <mxGeometry x="470" y="-13.5" width="100" height="100" as="geometry">
            <mxPoint x="470" y="86.5" as="sourcePoint" />
            <mxPoint x="570" y="-13.5" as="targetPoint" />
          </mxGeometry>
        </mxCell>
        <mxCell id="1403" value="" style="edgeStyle=none;endArrow=none;strokeWidth=3;strokeColor=#F5AF58;html=1;" parent="1" source="1351" target="1391" edge="1">
          <mxGeometry x="470" y="-13.5" width="100" height="100" as="geometry">
            <mxPoint x="470" y="86.5" as="sourcePoint" />
            <mxPoint x="570" y="-13.5" as="targetPoint" />
          </mxGeometry>
        </mxCell>
        <mxCell id="1404" value="" style="edgeStyle=none;endArrow=none;strokeWidth=3;strokeColor=#F5AF58;html=1;" parent="1" source="1351" target="1392" edge="1">
          <mxGeometry x="470" y="-13.5" width="100" height="100" as="geometry">
            <mxPoint x="470" y="86.5" as="sourcePoint" />
            <mxPoint x="570" y="-13.5" as="targetPoint" />
          </mxGeometry>
        </mxCell>
        <mxCell id="1405" value="" style="edgeStyle=none;endArrow=none;strokeWidth=3;strokeColor=#F5AF58;html=1;" parent="1" source="1351" target="1393" edge="1">
          <mxGeometry x="470" y="-13.5" width="100" height="100" as="geometry">
            <mxPoint x="470" y="86.5" as="sourcePoint" />
            <mxPoint x="570" y="-13.5" as="targetPoint" />
          </mxGeometry>
        </mxCell>
        <mxCell id="1406" value="" style="edgeStyle=none;endArrow=none;strokeWidth=3;strokeColor=#F5AF58;html=1;" parent="1" source="1351" target="1394" edge="1">
          <mxGeometry x="470" y="-13.5" width="100" height="100" as="geometry">
            <mxPoint x="470" y="86.5" as="sourcePoint" />
            <mxPoint x="570" y="-13.5" as="targetPoint" />
          </mxGeometry>
        </mxCell>
        <mxCell id="1407" value="" style="edgeStyle=none;endArrow=none;strokeWidth=3;strokeColor=#F5AF58;html=1;" parent="1" source="1351" target="1395" edge="1">
          <mxGeometry x="470" y="-13.5" width="100" height="100" as="geometry">
            <mxPoint x="470" y="86.5" as="sourcePoint" />
            <mxPoint x="570" y="-13.5" as="targetPoint" />
          </mxGeometry>
        </mxCell>
        <mxCell id="1408" value="" style="edgeStyle=none;endArrow=none;strokeWidth=3;strokeColor=#F5AF58;html=1;" parent="1" source="1351" target="1396" edge="1">
          <mxGeometry x="470" y="-13.5" width="100" height="100" as="geometry">
            <mxPoint x="470" y="86.5" as="sourcePoint" />
            <mxPoint x="570" y="-13.5" as="targetPoint" />
          </mxGeometry>
        </mxCell>
        <mxCell id="1409" value="" style="edgeStyle=none;endArrow=none;strokeWidth=3;strokeColor=#F5AF58;html=1;" parent="1" source="1351" target="1397" edge="1">
          <mxGeometry x="470" y="-13.5" width="100" height="100" as="geometry">
            <mxPoint x="470" y="86.5" as="sourcePoint" />
            <mxPoint x="570" y="-13.5" as="targetPoint" />
          </mxGeometry>
        </mxCell>
        <mxCell id="1410" value="" style="edgeStyle=none;endArrow=none;strokeWidth=3;strokeColor=#F5AF58;html=1;" parent="1" source="1351" target="1398" edge="1">
          <mxGeometry x="470" y="-13.5" width="100" height="100" as="geometry">
            <mxPoint x="470" y="86.5" as="sourcePoint" />
            <mxPoint x="570" y="-13.5" as="targetPoint" />
          </mxGeometry>
        </mxCell>
        <mxCell id="1411" value="" style="rounded=1;fillColor=#f08e81;strokeColor=none;strokeWidth=3;shadow=0;html=1;fontColor=#FFFFFF;" parent="1" vertex="1">
          <mxGeometry x="1820" y="906.5" width="120" height="40" as="geometry" />
        </mxCell>
        <mxCell id="1412" value="" style="rounded=1;fillColor=#f08e81;strokeColor=none;strokeWidth=3;shadow=0;html=1;fontColor=#FFFFFF;" parent="1" vertex="1">
          <mxGeometry x="2155" y="791.5" width="120" height="40" as="geometry" />
        </mxCell>
        <mxCell id="1413" value="" style="rounded=1;fillColor=#f08e81;strokeColor=none;strokeWidth=3;shadow=0;html=1;fontColor=#FFFFFF;" parent="1" vertex="1">
          <mxGeometry x="1700" y="826.5" width="120" height="40" as="geometry" />
        </mxCell>
        <mxCell id="1414" value="" style="rounded=1;fillColor=#f08e81;strokeColor=none;strokeWidth=3;shadow=0;html=1;fontColor=#FFFFFF;" parent="1" vertex="1">
          <mxGeometry x="1730" y="760" width="120" height="41.5" as="geometry" />
        </mxCell>
        <mxCell id="1415" value="" style="rounded=1;fillColor=#f08e81;strokeColor=none;strokeWidth=3;shadow=0;html=1;fontColor=#FFFFFF;" parent="1" vertex="1">
          <mxGeometry x="1750" y="681.5" width="120" height="40" as="geometry" />
        </mxCell>
        <mxCell id="1416" value="" style="rounded=1;fillColor=#f08e81;strokeColor=none;strokeWidth=3;shadow=0;html=1;fontColor=#FFFFFF;" parent="1" vertex="1">
          <mxGeometry x="1840" y="611.5" width="120" height="40" as="geometry" />
        </mxCell>
        <mxCell id="1417" value="" style="rounded=1;fillColor=#f08e81;strokeColor=none;strokeWidth=3;shadow=0;html=1;fontColor=#FFFFFF;" parent="1" vertex="1">
          <mxGeometry x="1975" y="556.5" width="120" height="40" as="geometry" />
        </mxCell>
        <mxCell id="1418" value="" style="rounded=1;fillColor=#f08e81;strokeColor=none;strokeWidth=3;shadow=0;html=1;fontColor=#FFFFFF;" parent="1" vertex="1">
          <mxGeometry x="2070" y="641.5" width="120" height="40" as="geometry" />
        </mxCell>
        <mxCell id="1419" value="" style="rounded=1;fillColor=#f08e81;strokeColor=none;strokeWidth=3;shadow=0;html=1;fontColor=#FFFFFF;" parent="1" vertex="1">
          <mxGeometry x="2125" y="711.5" width="120" height="40" as="geometry" />
        </mxCell>
        <mxCell id="1420" value="" style="rounded=1;fillColor=#f08e81;strokeColor=none;strokeWidth=3;shadow=0;html=1;fontColor=#FFFFFF;" parent="1" vertex="1">
          <mxGeometry x="1900" y="966.5" width="120" height="40" as="geometry" />
        </mxCell>
        <mxCell id="1421" value="" style="rounded=1;fillColor=#f08e81;strokeColor=none;strokeWidth=3;shadow=0;html=1;fontColor=#FFFFFF;" parent="1" vertex="1">
          <mxGeometry x="1990" y="896.5" width="120" height="40" as="geometry" />
        </mxCell>
        <mxCell id="1422" value="" style="rounded=1;fillColor=#f08e81;strokeColor=none;strokeWidth=3;shadow=0;html=1;fontColor=#FFFFFF;" parent="1" vertex="1">
          <mxGeometry x="2085" y="851.5" width="120" height="40" as="geometry" />
        </mxCell>
        <mxCell id="1423" value="" style="edgeStyle=none;endArrow=none;strokeWidth=3;strokeColor=#F08E81;html=1;" parent="1" source="1352" target="1411" edge="1">
          <mxGeometry x="240" y="496.5" width="100" height="100" as="geometry">
            <mxPoint x="240" y="596.5" as="sourcePoint" />
            <mxPoint x="340" y="496.5" as="targetPoint" />
          </mxGeometry>
        </mxCell>
        <mxCell id="1424" value="" style="edgeStyle=none;endArrow=none;strokeWidth=3;strokeColor=#F08E81;html=1;" parent="1" source="1352" target="1413" edge="1">
          <mxGeometry x="240" y="496.5" width="100" height="100" as="geometry">
            <mxPoint x="240" y="596.5" as="sourcePoint" />
            <mxPoint x="340" y="496.5" as="targetPoint" />
          </mxGeometry>
        </mxCell>
        <mxCell id="1425" value="" style="edgeStyle=none;endArrow=none;strokeWidth=3;strokeColor=#F08E81;html=1;" parent="1" source="1352" target="1414" edge="1">
          <mxGeometry x="240" y="496.5" width="100" height="100" as="geometry">
            <mxPoint x="240" y="596.5" as="sourcePoint" />
            <mxPoint x="340" y="496.5" as="targetPoint" />
          </mxGeometry>
        </mxCell>
        <mxCell id="1426" value="" style="edgeStyle=none;endArrow=none;strokeWidth=3;strokeColor=#F08E81;html=1;" parent="1" source="1352" target="1415" edge="1">
          <mxGeometry x="240" y="496.5" width="100" height="100" as="geometry">
            <mxPoint x="240" y="596.5" as="sourcePoint" />
            <mxPoint x="340" y="496.5" as="targetPoint" />
          </mxGeometry>
        </mxCell>
        <mxCell id="1427" value="" style="edgeStyle=none;endArrow=none;strokeWidth=3;strokeColor=#F08E81;html=1;" parent="1" source="1352" target="1416" edge="1">
          <mxGeometry x="240" y="496.5" width="100" height="100" as="geometry">
            <mxPoint x="240" y="596.5" as="sourcePoint" />
            <mxPoint x="340" y="496.5" as="targetPoint" />
          </mxGeometry>
        </mxCell>
        <mxCell id="1428" value="" style="edgeStyle=none;endArrow=none;strokeWidth=3;strokeColor=#F08E81;html=1;" parent="1" source="1352" target="1417" edge="1">
          <mxGeometry x="240" y="496.5" width="100" height="100" as="geometry">
            <mxPoint x="240" y="596.5" as="sourcePoint" />
            <mxPoint x="340" y="496.5" as="targetPoint" />
          </mxGeometry>
        </mxCell>
        <mxCell id="1429" value="" style="edgeStyle=none;endArrow=none;strokeWidth=3;strokeColor=#F08E81;html=1;" parent="1" source="1352" target="1418" edge="1">
          <mxGeometry x="240" y="496.5" width="100" height="100" as="geometry">
            <mxPoint x="240" y="596.5" as="sourcePoint" />
            <mxPoint x="340" y="496.5" as="targetPoint" />
          </mxGeometry>
        </mxCell>
        <mxCell id="1430" value="" style="edgeStyle=none;endArrow=none;strokeWidth=3;strokeColor=#F08E81;html=1;" parent="1" source="1352" target="1419" edge="1">
          <mxGeometry x="240" y="496.5" width="100" height="100" as="geometry">
            <mxPoint x="240" y="596.5" as="sourcePoint" />
            <mxPoint x="340" y="496.5" as="targetPoint" />
          </mxGeometry>
        </mxCell>
        <mxCell id="1431" value="" style="edgeStyle=none;endArrow=none;strokeWidth=3;strokeColor=#F08E81;html=1;" parent="1" source="1352" target="1412" edge="1">
          <mxGeometry x="240" y="496.5" width="100" height="100" as="geometry">
            <mxPoint x="240" y="596.5" as="sourcePoint" />
            <mxPoint x="340" y="496.5" as="targetPoint" />
          </mxGeometry>
        </mxCell>
        <mxCell id="1432" value="" style="edgeStyle=none;endArrow=none;strokeWidth=3;strokeColor=#F08E81;html=1;" parent="1" source="1352" target="1422" edge="1">
          <mxGeometry x="240" y="496.5" width="100" height="100" as="geometry">
            <mxPoint x="240" y="596.5" as="sourcePoint" />
            <mxPoint x="340" y="496.5" as="targetPoint" />
          </mxGeometry>
        </mxCell>
        <mxCell id="1433" value="" style="edgeStyle=none;endArrow=none;strokeWidth=3;strokeColor=#F08E81;html=1;" parent="1" source="1352" target="1421" edge="1">
          <mxGeometry x="240" y="496.5" width="100" height="100" as="geometry">
            <mxPoint x="240" y="596.5" as="sourcePoint" />
            <mxPoint x="340" y="496.5" as="targetPoint" />
          </mxGeometry>
        </mxCell>
        <mxCell id="1434" value="" style="edgeStyle=none;endArrow=none;strokeWidth=3;strokeColor=#F08E81;html=1;" parent="1" source="1352" target="1420" edge="1">
          <mxGeometry x="240" y="496.5" width="100" height="100" as="geometry">
            <mxPoint x="240" y="596.5" as="sourcePoint" />
            <mxPoint x="340" y="496.5" as="targetPoint" />
          </mxGeometry>
        </mxCell>
        <mxCell id="1449" value="" style="edgeStyle=none;endArrow=none;strokeWidth=3;strokeColor=#64BBE2;html=1;" parent="1" target="1438" edge="1">
          <mxGeometry x="-24" y="196.5" width="100" height="100" as="geometry">
            <mxPoint x="2023.7771112377236" y="813.3169943375287" as="sourcePoint" />
            <mxPoint x="76" y="196.5" as="targetPoint" />
          </mxGeometry>
        </mxCell>
        <mxCell id="1514" style="edgeStyle=orthogonalEdgeStyle;rounded=0;html=1;exitX=0.75;exitY=0;entryX=0.75;entryY=0;startArrow=none;startFill=0;endArrow=block;endFill=1;jettySize=auto;orthogonalLoop=1;strokeColor=#12aab5;strokeWidth=6;fontSize=20;fontColor=#2F5B7C;" parent="1" source="1414" target="1414" edge="1">
          <mxGeometry relative="1" as="geometry" />
        </mxCell>
        <mxCell id="1515" value="Assessment" style="ellipse;whiteSpace=wrap;html=1;shadow=0;fontFamily=Helvetica;fontSize=30;fontColor=#2F5B7C;align=center;strokeColor=#2F5B7C;strokeWidth=6;fillColor=#FFFFFF;fontStyle=1;gradientColor=none;" parent="1" vertex="1">
          <mxGeometry x="961" y="676.5" width="270" height="270" as="geometry" />
        </mxCell>
        <mxCell id="1516" value="Evaluation 1" style="ellipse;whiteSpace=wrap;html=1;shadow=0;fontFamily=Helvetica;fontSize=20;fontColor=#FFFFFF;align=center;strokeWidth=3;fillColor=#736ca8;strokeColor=none;" parent="1" vertex="1">
          <mxGeometry x="312" y="750" width="120" height="120" as="geometry" />
        </mxCell>
        <mxCell id="1517" value="Test 7" style="rounded=1;fillColor=#a29dc5;strokeColor=none;strokeWidth=3;shadow=0;html=1;fontColor=#FFFFFF;" parent="1" vertex="1">
          <mxGeometry x="202" y="650" width="120" height="40" as="geometry" />
        </mxCell>
        <mxCell id="1518" value="Test 8" style="rounded=1;fillColor=#a29dc5;strokeColor=none;strokeWidth=3;shadow=0;html=1;fontColor=#FFFFFF;" parent="1" vertex="1">
          <mxGeometry x="309.5" y="590" width="120" height="40" as="geometry" />
        </mxCell>
        <mxCell id="1519" value="Test 9" style="rounded=1;fillColor=#a29dc5;strokeColor=none;strokeWidth=3;shadow=0;html=1;fontColor=#FFFFFF;" parent="1" vertex="1">
          <mxGeometry x="449.5" y="600" width="120" height="40" as="geometry" />
        </mxCell>
        <mxCell id="1520" value="Test 10" style="rounded=1;fillColor=#a29dc5;strokeColor=none;strokeWidth=3;shadow=0;html=1;fontColor=#FFFFFF;" parent="1" vertex="1">
          <mxGeometry x="514.5" y="670" width="120" height="40" as="geometry" />
        </mxCell>
        <mxCell id="1522" value="Test 6" style="rounded=1;fillColor=#a29dc5;strokeColor=none;strokeWidth=3;shadow=0;html=1;fontColor=#FFFFFF;" parent="1" vertex="1">
          <mxGeometry x="67" y="670" width="120" height="40" as="geometry" />
        </mxCell>
        <mxCell id="1524" value="Test 1" style="rounded=1;fillColor=#a29dc5;strokeColor=none;strokeWidth=3;shadow=0;html=1;fontColor=#FFFFFF;" parent="1" vertex="1">
          <mxGeometry x="422" y="920" width="120" height="40" as="geometry" />
        </mxCell>
        <mxCell id="1525" value="Test 2" style="rounded=1;fillColor=#a29dc5;strokeColor=none;strokeWidth=3;shadow=0;html=1;fontColor=#FFFFFF;" parent="1" vertex="1">
          <mxGeometry x="282" y="920" width="120" height="40" as="geometry" />
        </mxCell>
        <mxCell id="1526" value="Test 3" style="rounded=1;fillColor=#a29dc5;strokeColor=none;strokeWidth=3;shadow=0;html=1;fontColor=#FFFFFF;" parent="1" vertex="1">
          <mxGeometry x="142" y="885" width="120" height="40" as="geometry" />
        </mxCell>
        <mxCell id="1527" value="Test 4" style="rounded=1;fillColor=#a29dc5;strokeColor=none;strokeWidth=3;shadow=0;html=1;fontColor=#FFFFFF;" parent="1" vertex="1">
          <mxGeometry x="37" y="830" width="120" height="40" as="geometry" />
        </mxCell>
        <mxCell id="1528" value="" style="edgeStyle=none;endArrow=none;strokeWidth=3;strokeColor=#A29DC5;html=1;" parent="1" source="1516" target="1517" edge="1">
          <mxGeometry x="-1498" y="-275" width="100" height="100" as="geometry">
            <mxPoint x="-1498" y="-175" as="sourcePoint" />
            <mxPoint x="-1398" y="-275" as="targetPoint" />
          </mxGeometry>
        </mxCell>
        <mxCell id="1529" value="Test 5" style="rounded=1;fillColor=#a29dc5;strokeColor=none;strokeWidth=3;shadow=0;html=1;fontColor=#FFFFFF;" parent="1" vertex="1">
          <mxGeometry x="77" y="760" width="120" height="40" as="geometry" />
        </mxCell>
        <mxCell id="1530" value="" style="edgeStyle=none;endArrow=none;strokeWidth=3;strokeColor=#A29DC5;html=1;" parent="1" source="1516" target="1518" edge="1">
          <mxGeometry x="-1498" y="-275" width="100" height="100" as="geometry">
            <mxPoint x="-1498" y="-175" as="sourcePoint" />
            <mxPoint x="-1398" y="-275" as="targetPoint" />
          </mxGeometry>
        </mxCell>
        <mxCell id="1531" value="" style="edgeStyle=none;endArrow=none;strokeWidth=3;strokeColor=#A29DC5;html=1;" parent="1" source="1516" target="1519" edge="1">
          <mxGeometry x="-1498" y="-275" width="100" height="100" as="geometry">
            <mxPoint x="-1498" y="-175" as="sourcePoint" />
            <mxPoint x="-1398" y="-275" as="targetPoint" />
          </mxGeometry>
        </mxCell>
        <mxCell id="1532" value="" style="edgeStyle=none;endArrow=none;strokeWidth=3;strokeColor=#A29DC5;html=1;" parent="1" source="1516" target="1520" edge="1">
          <mxGeometry x="-1498" y="-275" width="100" height="100" as="geometry">
            <mxPoint x="-1498" y="-175" as="sourcePoint" />
            <mxPoint x="-1398" y="-275" as="targetPoint" />
          </mxGeometry>
        </mxCell>
        <mxCell id="1534" value="" style="edgeStyle=none;endArrow=none;strokeWidth=3;strokeColor=#A29DC5;html=1;" parent="1" source="1516" target="1522" edge="1">
          <mxGeometry x="-1498" y="-275" width="100" height="100" as="geometry">
            <mxPoint x="-1498" y="-175" as="sourcePoint" />
            <mxPoint x="-1398" y="-275" as="targetPoint" />
          </mxGeometry>
        </mxCell>
        <mxCell id="1536" value="" style="edgeStyle=none;endArrow=none;strokeWidth=3;strokeColor=#A29DC5;html=1;" parent="1" source="1516" target="1524" edge="1">
          <mxGeometry x="-1498" y="-275" width="100" height="100" as="geometry">
            <mxPoint x="-1498" y="-175" as="sourcePoint" />
            <mxPoint x="-1398" y="-275" as="targetPoint" />
          </mxGeometry>
        </mxCell>
        <mxCell id="1537" value="" style="edgeStyle=none;endArrow=none;strokeWidth=3;strokeColor=#A29DC5;html=1;" parent="1" source="1516" target="1525" edge="1">
          <mxGeometry x="-1498" y="-275" width="100" height="100" as="geometry">
            <mxPoint x="-1498" y="-175" as="sourcePoint" />
            <mxPoint x="-1398" y="-275" as="targetPoint" />
          </mxGeometry>
        </mxCell>
        <mxCell id="1538" value="" style="edgeStyle=none;endArrow=none;strokeWidth=3;strokeColor=#A29DC5;html=1;" parent="1" source="1516" target="1526" edge="1">
          <mxGeometry x="-1498" y="-275" width="100" height="100" as="geometry">
            <mxPoint x="-1498" y="-175" as="sourcePoint" />
            <mxPoint x="-1398" y="-275" as="targetPoint" />
          </mxGeometry>
        </mxCell>
        <mxCell id="1539" value="" style="edgeStyle=none;endArrow=none;strokeWidth=3;strokeColor=#A29DC5;html=1;" parent="1" source="1516" target="1527" edge="1">
          <mxGeometry x="-1498" y="-275" width="100" height="100" as="geometry">
            <mxPoint x="-1498" y="-175" as="sourcePoint" />
            <mxPoint x="-1398" y="-275" as="targetPoint" />
          </mxGeometry>
        </mxCell>
        <mxCell id="1540" value="" style="edgeStyle=none;endArrow=none;strokeWidth=3;strokeColor=#A29DC5;html=1;" parent="1" source="1516" target="1529" edge="1">
          <mxGeometry x="-1498" y="-275" width="100" height="100" as="geometry">
            <mxPoint x="-1498" y="-175" as="sourcePoint" />
            <mxPoint x="-1398" y="-275" as="targetPoint" />
          </mxGeometry>
        </mxCell>
        <mxCell id="1542" style="edgeStyle=none;rounded=0;html=1;exitX=0.5;exitY=1;endArrow=none;endFill=0;jettySize=auto;orthogonalLoop=1;strokeColor=#736CA8;strokeWidth=2;fillColor=#64bbe2;fontSize=20;fontColor=#23445D;" parent="1" source="1529" target="1529" edge="1">
          <mxGeometry relative="1" as="geometry" />
        </mxCell>
        <mxCell id="PBcIXkFHgragpKWVIyf9-1554" style="edgeStyle=orthogonalEdgeStyle;rounded=0;orthogonalLoop=1;jettySize=auto;html=1;dashed=1;dashPattern=1 1;startArrow=classic;startFill=1;endArrow=none;endFill=0;strokeColor=#2F5B7C;exitX=0.5;exitY=0;exitDx=0;exitDy=0;" edge="1" parent="1" source="PBcIXkFHgragpKWVIyf9-1546">
          <mxGeometry relative="1" as="geometry">
            <mxPoint x="489" y="960" as="targetPoint" />
            <Array as="points" />
          </mxGeometry>
        </mxCell>
        <mxCell id="PBcIXkFHgragpKWVIyf9-1546" value="Rule 1 in OSCAL component definition" style="shape=document;whiteSpace=wrap;html=1;boundedLbl=1;fillColor=#e1d5e7;strokeColor=#9673a6;" vertex="1" parent="1">
          <mxGeometry x="429.5" y="1030" width="120" height="80" as="geometry" />
        </mxCell>
        <mxCell id="PBcIXkFHgragpKWVIyf9-1556" style="rounded=0;orthogonalLoop=1;jettySize=auto;html=1;exitX=0.5;exitY=0;exitDx=0;exitDy=0;dashed=1;dashPattern=1 1;startArrow=classic;startFill=1;endArrow=none;endFill=0;strokeColor=#2F5B7C;" edge="1" parent="1" source="PBcIXkFHgragpKWVIyf9-1547">
          <mxGeometry relative="1" as="geometry">
            <mxPoint x="490" y="960" as="targetPoint" />
          </mxGeometry>
        </mxCell>
        <mxCell id="PBcIXkFHgragpKWVIyf9-1547" value="Rule 1 in OSCAL component definition" style="shape=document;whiteSpace=wrap;html=1;boundedLbl=1;fillColor=#e1d5e7;strokeColor=#9673a6;" vertex="1" parent="1">
          <mxGeometry x="570" y="1030" width="120" height="80" as="geometry" />
        </mxCell>
        <mxCell id="PBcIXkFHgragpKWVIyf9-1551" style="rounded=0;orthogonalLoop=1;jettySize=auto;html=1;exitX=0.5;exitY=0;exitDx=0;exitDy=0;strokeColor=#2F5B7C;dashed=1;dashPattern=1 1;" edge="1" parent="1" source="PBcIXkFHgragpKWVIyf9-1548" target="1515">
          <mxGeometry relative="1" as="geometry" />
        </mxCell>
        <mxCell id="PBcIXkFHgragpKWVIyf9-1548" value="OSCAL Assessment Plan" style="shape=document;whiteSpace=wrap;html=1;boundedLbl=1;strokeColor=#2F5B7C;" vertex="1" parent="1">
          <mxGeometry x="900" y="1030" width="120" height="80" as="geometry" />
        </mxCell>
        <mxCell id="PBcIXkFHgragpKWVIyf9-1552" style="edgeStyle=none;rounded=0;orthogonalLoop=1;jettySize=auto;html=1;exitX=0.5;exitY=0;exitDx=0;exitDy=0;strokeColor=#2F5B7C;dashed=1;dashPattern=1 1;" edge="1" parent="1" source="PBcIXkFHgragpKWVIyf9-1549">
          <mxGeometry relative="1" as="geometry">
            <mxPoint x="1180" y="920" as="targetPoint" />
          </mxGeometry>
        </mxCell>
        <mxCell id="PBcIXkFHgragpKWVIyf9-1549" value="OSCAL Assessment Result" style="shape=document;whiteSpace=wrap;html=1;boundedLbl=1;strokeColor=#2F5B7C;" vertex="1" parent="1">
          <mxGeometry x="1220" y="1030" width="120" height="80" as="geometry" />
        </mxCell>
      </root>
    </mxGraphModel>
  </diagram>
</mxfile>
